<svg width="20" height="16" viewBox="0 0 20 16" fill="none" xmlns="http://www.w3.org/2000/svg">
<path d="M19.9294 11.862C19.8389 11.7006 19.6735 11.5982 19.4924 11.5825C19.2444 7.22021 16.0396 3.64143 11.8624 2.80678C12.0435 1.83039 11.6892 0.416992 10.0041 0.416992C8.41358 0.416992 7.90177 1.86976 8.14586 2.80678C3.96078 3.64143 0.759964 7.22415 0.507993 11.5825C0.326888 11.5982 0.161532 11.7006 0.0709804 11.862C-0.0274458 12.0392 -0.0235087 12.2518 0.0827915 12.425L1.86627 15.3187C1.96864 15.4841 2.1458 15.5825 2.33872 15.5825H17.6578C17.8507 15.5825 18.0278 15.4841 18.1302 15.3187L19.9137 12.425C20.0239 12.2518 20.0279 12.0392 19.9294 11.862ZM10.0002 1.52724C10.89 1.52724 10.8664 2.35796 10.7404 2.65323C10.4963 2.63355 10.2482 2.62174 10.0002 2.62174C9.75218 2.62174 9.50414 2.63355 9.26005 2.65323C9.13406 2.35796 9.08288 1.52724 10.0002 1.52724ZM10.0002 3.73592C14.4451 3.73592 18.0908 7.20446 18.3782 11.5785H1.62218C1.90958 7.20446 5.55529 3.73592 10.0002 3.73592ZM17.3507 14.4722H2.64975L1.55131 12.6888H18.4491L17.3507 14.4722Z" fill="#BEDCFF"/>
</svg>
