<svg width="20" height="20" viewBox="0 0 20 20" fill="none" xmlns="http://www.w3.org/2000/svg">
<path d="M12.875 11.1254C14.75 10.1254 15.875 8.25036 15.875 6.00036C15.875 2.75036 13.25 0.125359 10 0.125359C6.75 0.000358932 4.125 2.62536 4.125 5.87536C4.125 8.12536 5.375 10.0004 7.125 11.0004C3.375 12.2504 0.625 15.8754 0.625 20.0004H1.875C1.875 15.5004 5.5 11.8754 10 11.8754C14.5 11.8754 18.125 15.5004 18.125 20.0004H19.375C19.375 15.8754 16.625 12.2504 12.875 11.1254ZM5.375 5.87536C5.375 3.37536 7.375 1.25036 10 1.25036C12.625 1.25036 14.625 3.37536 14.625 5.87536C14.625 8.37536 12.625 10.6254 10 10.6254C7.375 10.6254 5.375 8.50036 5.375 5.87536Z" fill="#BEDCFF"/>
</svg>
